# xmcd
#
# Track frame offsets:
# 182
# 26707
# 38995
# 51832
# 73695
# 94382
# 107882
# 128082
# 146620
# 157757
# 173707
# 197332
# 215645
# 240532
#
# Disc length: 3505 seconds
#
# Revision: 0
# Processed by: cddbd v1.4PL0 Copyright (c) Steve Scherf et al.
# Submitted via: Audion 3.0.2 (http://www.panic.com/audion/)
#
DISCID=c40daf0e
DTITLE=Tim Strong - Dear Earth
DYEAR=1900
DGENRE=
TTITLE0=Dear Earth
TTITLE1=Body And Soul
TTITLE2=You Pull The Strings
TTITLE3=Autumn Leaves
TTITLE4=Round Midnight
TTITLE5=CAravan
TTITLE6=Sophisticated Lady
TTITLE7=Trying To Find My Way Back Home
TTITLE8=United
TTITLE9=The Flame It Burns
TTITLE10=You Go To My head
TTITLE11=A Foggy Day
TTITLE12=Someone To Watch Over Me
TTITLE13=Prayer
EXTD=
EXTT0=
EXTT1=
EXTT2=
EXTT3=
EXTT4=
EXTT5=
EXTT6=
EXTT7=
EXTT8=
EXTT9=
EXTT10=
EXTT11=
EXTT12=
EXTT13=
PLAYORDER=
